<svg width="91" height="92" viewBox="0 0 91 92" fill="none" xmlns="http://www.w3.org/2000/svg">
<g id="Paper">
<g id="Bg">
<path id="Union" fill-rule="evenodd" clip-rule="evenodd" d="M67.9417 26.5237L67.9417 23.6004C67.9417 14.8167 60.8493 7.68836 52.1511 7.68836L25.5212 7.68835C17.2244 7.68835 10.5 14.4788 10.5 22.8572L10.5 56.4214L10.5 59.3447C10.5 68.1284 17.5924 75.2567 26.2906 75.2567H52.9206C61.2174 75.2567 67.9417 68.4662 67.9417 60.0879V26.5237Z" fill="url(#paint0_linear_1321_71)"/>
<g id="Rectangle 1034" opacity="0.5" filter="url(#filter0_f_1321_71)">
<rect x="21.3589" y="56.2687" width="35.0773" height="30.0713" rx="5" transform="rotate(-90 21.3589 56.2687)" fill="#9A98F5" fill-opacity="0.5"/>
</g>
</g>
<g id="Icon">
<g id="Path" filter="url(#filter1_b_1321_71)">
<path d="M38.1462 23.0363H62.9877L80.4998 41.8703V75.4346C80.4998 83.8129 73.7754 90.6034 65.4787 90.6034H38.8487C30.1505 90.6034 23.0581 83.4751 23.0581 74.6913L23.0581 38.2727C23.0581 29.8943 29.816 23.0363 38.1462 23.0363Z" fill="#7573DD" fill-opacity="0.35"/>
<path d="M63.3539 22.6958C63.2593 22.5941 63.1267 22.5363 62.9877 22.5363H38.1462C29.5345 22.5363 22.5581 29.6236 22.5581 38.2727L22.5581 74.6913C22.5581 83.748 29.8711 91.1034 38.8487 91.1034H65.4787C74.0562 91.1034 80.9998 84.0844 80.9998 75.4346V41.8703C80.9998 41.744 80.952 41.6224 80.866 41.5299L63.3539 22.6958Z" stroke="url(#paint1_linear_1321_71)" stroke-linecap="round" stroke-linejoin="round"/>
</g>
<g id="Union_2">
<mask id="path-5-inside-1_1321_71" fill="white">
<path fill-rule="evenodd" clip-rule="evenodd" d="M51.5253 49.5416H40.2176C38.846 49.5416 37.7085 50.6903 37.7085 52.0754C37.7085 53.4605 38.846 54.5754 40.2176 54.5754H51.5253C52.8969 54.5754 54.0344 53.4605 54.0344 52.0754C54.0344 50.6903 52.8969 49.5416 51.5253 49.5416ZM40.2177 71.4662H58.417C59.7887 71.4662 60.9261 70.3175 60.9261 68.9324C60.9261 67.5473 59.7887 66.4324 58.417 66.4324H40.2177C38.846 66.4324 37.7086 67.5473 37.7086 68.9324C37.7086 70.3175 38.846 71.4662 40.2177 71.4662Z"/>
</mask>
<path fill-rule="evenodd" clip-rule="evenodd" d="M51.5253 49.5416H40.2176C38.846 49.5416 37.7085 50.6903 37.7085 52.0754C37.7085 53.4605 38.846 54.5754 40.2176 54.5754H51.5253C52.8969 54.5754 54.0344 53.4605 54.0344 52.0754C54.0344 50.6903 52.8969 49.5416 51.5253 49.5416ZM40.2177 71.4662H58.417C59.7887 71.4662 60.9261 70.3175 60.9261 68.9324C60.9261 67.5473 59.7887 66.4324 58.417 66.4324H40.2177C38.846 66.4324 37.7086 67.5473 37.7086 68.9324C37.7086 70.3175 38.846 71.4662 40.2177 71.4662Z" fill="url(#paint2_linear_1321_71)"/>
<path d="M40.2176 49.9416H51.5253V49.1416H40.2176V49.9416ZM38.1085 52.0754C38.1085 50.9075 39.0705 49.9416 40.2176 49.9416V49.1416C38.6214 49.1416 37.3085 50.4731 37.3085 52.0754H38.1085ZM40.2176 54.1754C39.0636 54.1754 38.1085 53.2363 38.1085 52.0754H37.3085C37.3085 53.6847 38.6283 54.9754 40.2176 54.9754V54.1754ZM51.5253 54.1754H40.2176V54.9754H51.5253V54.1754ZM53.6344 52.0754C53.6344 53.2363 52.6793 54.1754 51.5253 54.1754V54.9754C53.1145 54.9754 54.4344 53.6847 54.4344 52.0754H53.6344ZM51.5253 49.9416C52.6723 49.9416 53.6344 50.9075 53.6344 52.0754H54.4344C54.4344 50.4731 53.1215 49.1416 51.5253 49.1416V49.9416ZM58.417 71.0662H40.2177V71.8662H58.417V71.0662ZM60.5261 68.9324C60.5261 70.1003 59.5641 71.0662 58.417 71.0662V71.8662C60.0133 71.8662 61.3261 70.5348 61.3261 68.9324H60.5261ZM58.417 66.8324C59.5711 66.8324 60.5261 67.7715 60.5261 68.9324H61.3261C61.3261 67.3231 60.0063 66.0324 58.417 66.0324V66.8324ZM40.2177 66.8324H58.417V66.0324H40.2177V66.8324ZM38.1086 68.9324C38.1086 67.7715 39.0636 66.8324 40.2177 66.8324V66.0324C38.6284 66.0324 37.3086 67.3231 37.3086 68.9324H38.1086ZM40.2177 71.0662C39.0706 71.0662 38.1086 70.1003 38.1086 68.9324H37.3086C37.3086 70.5348 38.6214 71.8662 40.2177 71.8662V71.0662Z" fill="url(#paint3_linear_1321_71)" mask="url(#path-5-inside-1_1321_71)"/>
</g>
<g id="Fill 15" filter="url(#filter2_bd_1321_71)">
<mask id="path-7-inside-2_1321_71" fill="white">
<path d="M66.0852 44.5679C68.417 44.5916 71.6588 44.6017 74.4088 44.5916C75.8172 44.5882 76.5331 42.8889 75.5562 41.8652C72.0234 38.1558 65.7038 31.5173 62.0874 27.7201C61.0871 26.6694 59.3374 27.3924 59.3374 28.8484V37.7538C59.3374 41.4902 62.3851 44.5679 66.0852 44.5679Z"/>
</mask>
<path d="M66.0852 44.5679C68.417 44.5916 71.6588 44.6017 74.4088 44.5916C75.8172 44.5882 76.5331 42.8889 75.5562 41.8652C72.0234 38.1558 65.7038 31.5173 62.0874 27.7201C61.0871 26.6694 59.3374 27.3924 59.3374 28.8484V37.7538C59.3374 41.4902 62.3851 44.5679 66.0852 44.5679Z" fill="url(#paint4_linear_1321_71)"/>
<path d="M74.4088 44.5916L74.4078 44.1916L74.4073 44.1916L74.4088 44.5916ZM75.5562 41.8652L75.2666 42.1411L75.2669 42.1414L75.5562 41.8652ZM62.0874 27.7201L61.7977 27.9959L61.7977 27.9959L62.0874 27.7201ZM66.0812 44.9679C68.415 44.9916 71.6586 45.0017 74.4102 44.9916L74.4073 44.1916C71.659 44.2017 68.4191 44.1916 66.0893 44.1679L66.0812 44.9679ZM74.4097 44.9916C76.1759 44.9873 77.0608 42.8624 75.8456 41.5891L75.2669 42.1414C76.0055 42.9154 75.4585 44.189 74.4078 44.1916L74.4097 44.9916ZM75.8459 41.5894C72.3102 37.8769 65.9965 31.2446 62.377 27.4442L61.7977 27.9959C65.4112 31.7901 71.7367 38.4347 75.2666 42.1411L75.8459 41.5894ZM62.3771 27.4442C61.118 26.1217 58.9374 27.0455 58.9374 28.8484H59.7374C59.7374 27.7392 61.0562 27.217 61.7977 27.9959L62.3771 27.4442ZM58.9374 28.8484V37.7538H59.7374V28.8484H58.9374ZM58.9374 37.7538C58.9374 41.7074 62.1605 44.9679 66.0852 44.9679V44.1679C62.6097 44.1679 59.7374 41.273 59.7374 37.7538H58.9374Z" fill="url(#paint5_linear_1321_71)" mask="url(#path-7-inside-2_1321_71)"/>
</g>
</g>
</g>
<defs>
<filter id="filter0_f_1321_71" x="0.358887" y="0.191406" width="72.0713" height="77.0773" filterUnits="userSpaceOnUse" color-interpolation-filters="sRGB">
<feFlood flood-opacity="0" result="BackgroundImageFix"/>
<feBlend mode="normal" in="SourceGraphic" in2="BackgroundImageFix" result="shape"/>
<feGaussianBlur stdDeviation="10.5" result="effect1_foregroundBlur_1321_71"/>
</filter>
<filter id="filter1_b_1321_71" x="-1.94189" y="-1.96371" width="107.442" height="117.567" filterUnits="userSpaceOnUse" color-interpolation-filters="sRGB">
<feFlood flood-opacity="0" result="BackgroundImageFix"/>
<feGaussianBlur in="BackgroundImageFix" stdDeviation="12"/>
<feComposite in2="SourceAlpha" operator="in" result="effect1_backgroundBlur_1321_71"/>
<feBlend mode="normal" in="SourceGraphic" in2="effect1_backgroundBlur_1321_71" result="shape"/>
</filter>
<filter id="filter2_bd_1321_71" x="44.3374" y="12.2219" width="46.6694" height="47.3736" filterUnits="userSpaceOnUse" color-interpolation-filters="sRGB">
<feFlood flood-opacity="0" result="BackgroundImageFix"/>
<feGaussianBlur in="BackgroundImageFix" stdDeviation="7.5"/>
<feComposite in2="SourceAlpha" operator="in" result="effect1_backgroundBlur_1321_71"/>
<feColorMatrix in="SourceAlpha" type="matrix" values="0 0 0 0 0 0 0 0 0 0 0 0 0 0 0 0 0 0 127 0" result="hardAlpha"/>
<feOffset dx="5" dy="5"/>
<feGaussianBlur stdDeviation="5"/>
<feColorMatrix type="matrix" values="0 0 0 0 0.577356 0 0 0 0 0.359375 0 0 0 0 0.9375 0 0 0 0.25 0"/>
<feBlend mode="normal" in2="effect1_backgroundBlur_1321_71" result="effect2_dropShadow_1321_71"/>
<feBlend mode="normal" in="SourceGraphic" in2="effect2_dropShadow_1321_71" result="shape"/>
</filter>
<linearGradient id="paint0_linear_1321_71" x1="51.7292" y1="7.68835" x2="51.7292" y2="75.2567" gradientUnits="userSpaceOnUse">
<stop stop-color="#B4B3FF"/>
<stop offset="1" stop-color="#7977E3"/>
</linearGradient>
<linearGradient id="paint1_linear_1321_71" x1="32.2019" y1="30.9079" x2="76.2339" y2="77.2703" gradientUnits="userSpaceOnUse">
<stop stop-color="white" stop-opacity="0.25"/>
<stop offset="1" stop-color="white" stop-opacity="0"/>
</linearGradient>
<linearGradient id="paint2_linear_1321_71" x1="59.28" y1="53.5008" x2="33.4211" y2="54.3936" gradientUnits="userSpaceOnUse">
<stop stop-color="white"/>
<stop offset="1" stop-color="white" stop-opacity="0.2"/>
</linearGradient>
<linearGradient id="paint3_linear_1321_71" x1="41.4044" y1="52.0959" x2="55.2006" y2="70.1905" gradientUnits="userSpaceOnUse">
<stop stop-color="white" stop-opacity="0.25"/>
<stop offset="1" stop-color="white" stop-opacity="0"/>
</linearGradient>
<linearGradient id="paint4_linear_1321_71" x1="74.825" y1="30.3592" x2="56.2553" y2="30.9402" gradientUnits="userSpaceOnUse">
<stop stop-color="white"/>
<stop offset="1" stop-color="white" stop-opacity="0.2"/>
</linearGradient>
<linearGradient id="paint5_linear_1321_71" x1="61.9909" y1="29.246" x2="73.1612" y2="42.52" gradientUnits="userSpaceOnUse">
<stop stop-color="white" stop-opacity="0.25"/>
<stop offset="1" stop-color="white" stop-opacity="0"/>
</linearGradient>
</defs>
</svg>
