<svg width="87" height="88" viewBox="0 0 87 88" fill="none" xmlns="http://www.w3.org/2000/svg">
<g id="Play">
<g id="Bg">
<g id="Fill 1" filter="url(#filter0_b_1321_121)">
<path d="M72.7304 39.5478C72.7304 58.2484 57.5689 73.4073 38.8652 73.4073C20.1614 73.4073 5 58.2484 5 39.5478C5 20.8506 20.1614 5.68835 38.8652 5.68835C57.5689 5.68835 72.7304 20.8506 72.7304 39.5478Z" fill="url(#paint0_linear_1321_121)"/>
</g>
<g id="Fill 2" opacity="0.5" filter="url(#filter1_f_1321_121)">
<path d="M60.5665 39.516C60.5665 51.4233 50.9126 61.0755 39.0033 61.0755C27.094 61.0755 17.4402 51.4233 17.4402 39.516C17.4402 27.6108 27.094 17.9565 39.0033 17.9565C50.9126 17.9565 60.5665 27.6108 60.5665 39.516Z" fill="#ACCDFF"/>
</g>
</g>
<g id="Icon">
<g id="Fill 1_2" filter="url(#filter2_b_1321_121)">
<path d="M85.9999 52.8152C85.9999 71.5158 70.8385 86.6747 52.1347 86.6747C33.431 86.6747 18.2695 71.5158 18.2695 52.8152C18.2695 34.118 33.431 18.9557 52.1347 18.9557C70.8385 18.9557 85.9999 34.118 85.9999 52.8152Z" fill="#ACCDFF" fill-opacity="0.35"/>
<path d="M52.1347 87.1747C71.1145 87.1747 86.4999 71.792 86.4999 52.8152C86.4999 33.8418 71.1146 18.4557 52.1347 18.4557C33.1549 18.4557 17.7695 33.8418 17.7695 52.8152C17.7695 71.792 33.1549 87.1747 52.1347 87.1747Z" stroke="url(#paint1_linear_1321_121)" stroke-linecap="round" stroke-linejoin="round"/>
</g>
<g id="Fill 4" filter="url(#filter3_bd_1321_121)">
<path d="M65.6812 52.8321C65.6812 53.6878 65.4118 54.5469 64.8731 55.2348C64.7721 55.3697 64.3006 55.9259 63.9302 56.288L63.7282 56.4855C60.8997 59.4839 53.8621 63.993 50.2928 65.4379C50.2928 65.4708 48.1714 66.3298 47.1612 66.3594H47.0265C45.4776 66.3594 44.0296 65.507 43.2888 64.1246C42.8848 63.3643 42.5144 61.1591 42.4807 61.1295C42.1776 59.1514 41.9756 56.1234 41.9756 52.7992C41.9756 49.3137 42.1776 46.1507 42.548 44.2088C42.548 44.1759 42.9184 42.3986 43.1541 41.8062C43.5245 40.9537 44.198 40.2263 45.0398 39.7655C45.7133 39.4397 46.4204 39.2719 47.1612 39.2719C47.9357 39.3081 49.3836 39.7985 49.956 40.0289C53.7274 41.477 60.9334 46.2165 63.6945 49.1129C64.1659 49.5737 64.671 50.1365 64.8057 50.2649C65.3782 50.989 65.6812 51.8776 65.6812 52.8321Z" fill="url(#paint2_linear_1321_121)"/>
<path d="M64.7156 55.1114L64.7156 55.1114L64.713 55.1149C64.6183 55.2414 64.1537 55.7899 63.7904 56.145L63.5884 56.3424L63.5883 56.3423L63.5827 56.3482C62.1848 57.8301 59.734 59.6968 57.1784 61.3771C54.6237 63.0569 51.9846 64.5372 50.2177 65.2525L50.0928 65.3031V65.3142C50.0375 65.3383 49.9625 65.3695 49.8714 65.4058C49.6599 65.4902 49.3664 65.6004 49.0416 65.7105C48.3842 65.9333 47.6296 66.1448 47.1582 66.1594H47.0265C45.5506 66.1594 44.1709 65.347 43.4653 64.0304C43.2782 63.6782 43.0896 62.9648 42.9409 62.3089C42.8677 61.9861 42.806 61.6857 42.7602 61.4628L42.76 61.4615C42.7373 61.3513 42.7183 61.2587 42.7039 61.1928C42.6967 61.16 42.6901 61.1313 42.6845 61.1095C42.6818 61.0994 42.6786 61.0876 42.6749 61.0763C42.3758 59.111 42.1756 56.1044 42.1756 52.7992C42.1756 49.3175 42.3776 46.1695 42.7445 44.2463L42.748 44.2277V44.2243L42.7489 44.2193C42.7514 44.2057 42.7553 44.1857 42.7605 44.1597C42.7709 44.1078 42.7861 44.0342 42.8052 43.9445C42.8434 43.7651 42.8967 43.5226 42.9574 43.2628C43.0799 42.7388 43.2276 42.1638 43.3388 41.883C43.6905 41.0756 44.33 40.3833 45.1314 39.9434C45.776 39.6323 46.4504 39.4726 47.1565 39.4719C47.5177 39.4896 48.0511 39.6145 48.578 39.7694C49.1025 39.9236 49.6015 40.1017 49.8814 40.2144L49.8814 40.2144L49.8843 40.2156C51.7497 40.9319 54.4798 42.4694 57.0939 44.1947C59.7084 45.9203 62.185 47.8194 63.5498 49.2509L63.5497 49.251L63.5547 49.2559C63.7874 49.4833 64.0292 49.7367 64.2309 49.9507C64.2782 50.0009 64.3237 50.0494 64.3666 50.0951C64.4945 50.2313 64.5991 50.3427 64.657 50.3993C65.1952 51.0849 65.4812 51.9256 65.4812 52.8321C65.4812 53.6469 65.2246 54.4616 64.7156 55.1114Z" stroke="url(#paint3_linear_1321_121)" stroke-width="0.4"/>
</g>
</g>
</g>
<defs>
<filter id="filter0_b_1321_121" x="-8" y="-7.31165" width="93.7305" height="93.7189" filterUnits="userSpaceOnUse" color-interpolation-filters="sRGB">
<feFlood flood-opacity="0" result="BackgroundImageFix"/>
<feGaussianBlur in="BackgroundImageFix" stdDeviation="6.5"/>
<feComposite in2="SourceAlpha" operator="in" result="effect1_backgroundBlur_1321_121"/>
<feBlend mode="normal" in="SourceGraphic" in2="effect1_backgroundBlur_1321_121" result="shape"/>
</filter>
<filter id="filter1_f_1321_121" x="0.440186" y="0.956482" width="77.1262" height="77.119" filterUnits="userSpaceOnUse" color-interpolation-filters="sRGB">
<feFlood flood-opacity="0" result="BackgroundImageFix"/>
<feBlend mode="normal" in="SourceGraphic" in2="BackgroundImageFix" result="shape"/>
<feGaussianBlur stdDeviation="8.5" result="effect1_foregroundBlur_1321_121"/>
</filter>
<filter id="filter2_b_1321_121" x="-6.73047" y="-6.04425" width="117.73" height="117.719" filterUnits="userSpaceOnUse" color-interpolation-filters="sRGB">
<feFlood flood-opacity="0" result="BackgroundImageFix"/>
<feGaussianBlur in="BackgroundImageFix" stdDeviation="12"/>
<feComposite in2="SourceAlpha" operator="in" result="effect1_backgroundBlur_1321_121"/>
<feBlend mode="normal" in="SourceGraphic" in2="effect1_backgroundBlur_1321_121" result="shape"/>
</filter>
<filter id="filter3_bd_1321_121" x="26.9756" y="24.2719" width="53.7056" height="57.0876" filterUnits="userSpaceOnUse" color-interpolation-filters="sRGB">
<feFlood flood-opacity="0" result="BackgroundImageFix"/>
<feGaussianBlur in="BackgroundImageFix" stdDeviation="7.5"/>
<feComposite in2="SourceAlpha" operator="in" result="effect1_backgroundBlur_1321_121"/>
<feColorMatrix in="SourceAlpha" type="matrix" values="0 0 0 0 0 0 0 0 0 0 0 0 0 0 0 0 0 0 127 0" result="hardAlpha"/>
<feOffset dx="5" dy="5"/>
<feGaussianBlur stdDeviation="5"/>
<feColorMatrix type="matrix" values="0 0 0 0 0.67451 0 0 0 0 0.803922 0 0 0 0 1 0 0 0 0.5 0"/>
<feBlend mode="normal" in2="effect1_backgroundBlur_1321_121" result="effect2_dropShadow_1321_121"/>
<feBlend mode="normal" in="SourceGraphic" in2="effect2_dropShadow_1321_121" result="shape"/>
</filter>
<linearGradient id="paint0_linear_1321_121" x1="43.8515" y1="44.0826" x2="-15.6587" y2="73.0226" gradientUnits="userSpaceOnUse">
<stop stop-color="#ACCDFF"/>
<stop offset="1" stop-color="#8FBCFF"/>
</linearGradient>
<linearGradient id="paint1_linear_1321_121" x1="29.0511" y1="26.8451" x2="72.247" y2="80.3533" gradientUnits="userSpaceOnUse">
<stop stop-color="white" stop-opacity="0.25"/>
<stop offset="1" stop-color="white" stop-opacity="0"/>
</linearGradient>
<linearGradient id="paint2_linear_1321_121" x1="64.0005" y1="44.1633" x2="37.5881" y2="44.917" gradientUnits="userSpaceOnUse">
<stop stop-color="white"/>
<stop offset="1" stop-color="white" stop-opacity="0.2"/>
</linearGradient>
<linearGradient id="paint3_linear_1321_121" x1="45.7491" y1="42.4276" x2="63.3678" y2="61.5243" gradientUnits="userSpaceOnUse">
<stop stop-color="white" stop-opacity="0.25"/>
<stop offset="1" stop-color="white" stop-opacity="0"/>
</linearGradient>
</defs>
</svg>
