<svg width="73" height="88" viewBox="0 0 73 88" fill="none" xmlns="http://www.w3.org/2000/svg">
<g id="Send">
<g id="Bg">
<path id="Send_2" fill-rule="evenodd" clip-rule="evenodd" d="M44.533 19.8413L26.6654 37.8253L5.74669 24.9522C3.00562 23.2651 3.5612 19.1028 6.64913 18.2067L56.0375 3.83809C58.8461 3.02541 61.4429 5.65811 60.6019 8.4793L45.9481 57.8084C45.0303 60.8954 40.9141 61.4299 39.2504 58.6736L26.6654 37.8253" fill="url(#paint0_linear_1321_41)"/>
<g id="Send_3" opacity="0.5" filter="url(#filter0_f_1321_41)">
<path fill-rule="evenodd" clip-rule="evenodd" d="M41.9716 23.8877L31.3161 34.6127L18.8409 26.9357C17.2062 25.9295 17.5376 23.4473 19.3791 22.9129L48.8325 14.344C50.5075 13.8593 52.0561 15.4294 51.5545 17.1118L42.8155 46.5299C42.2682 48.3709 39.8134 48.6897 38.8213 47.0459L31.3161 34.6127" fill="#FFAE8D"/>
</g>
</g>
<g id="Icon">
<g id="Send_4" filter="url(#filter1_b_1321_41)">
<mask id="path-3-outside-1_1321_41" maskUnits="userSpaceOnUse" x="0.5" y="14.7983" width="73" height="73" fill="black">
<rect fill="white" x="0.5" y="14.7983" width="73" height="73"/>
<path fill-rule="evenodd" clip-rule="evenodd" d="M51.4932 36.7104L29.4673 58.8797L3.68028 43.0107C0.301284 40.9309 0.986164 35.8 4.79274 34.6953L65.6752 16.9828C69.1374 15.981 72.3386 19.2264 71.3018 22.7041L53.2376 83.5135C52.1062 87.3188 47.0321 87.9778 44.9812 84.58L29.4673 58.8797"/>
</mask>
<path fill-rule="evenodd" clip-rule="evenodd" d="M51.4932 36.7104L29.4673 58.8797L3.68028 43.0107C0.301284 40.9309 0.986164 35.8 4.79274 34.6953L65.6752 16.9828C69.1374 15.981 72.3386 19.2264 71.3018 22.7041L53.2376 83.5135C52.1062 87.3188 47.0321 87.9778 44.9812 84.58L29.4673 58.8797" fill="#FFD1BF" fill-opacity="0.35"/>
<path d="M52.2026 37.4152C52.5919 37.0234 52.5898 36.3902 52.198 36.001C51.8063 35.6117 51.1731 35.6138 50.7838 36.0056L52.2026 37.4152ZM29.4673 58.8797L28.9432 59.7313C29.3386 59.9747 29.8495 59.9138 30.1767 59.5845L29.4673 58.8797ZM3.68028 43.0107L3.1561 43.8623L3.15618 43.8624L3.68028 43.0107ZM4.79274 34.6953L5.07143 35.6557L5.07208 35.6555L4.79274 34.6953ZM65.6752 16.9828L65.3972 16.0222L65.3958 16.0226L65.6752 16.9828ZM71.3018 22.7041L70.3435 22.4184L70.3432 22.4194L71.3018 22.7041ZM53.2376 83.5135L54.1961 83.7985L54.1962 83.7982L53.2376 83.5135ZM44.9812 84.58L45.8373 84.0633L45.8373 84.0633L44.9812 84.58ZM30.3235 58.3629C30.038 57.8901 29.4234 57.7381 28.9506 58.0236C28.4777 58.309 28.3258 58.9236 28.6112 59.3965L30.3235 58.3629ZM50.7838 36.0056L28.7579 58.1749L30.1767 59.5845L52.2026 37.4152L50.7838 36.0056ZM29.9914 58.028L4.20437 42.1591L3.15618 43.8624L28.9432 59.7313L29.9914 58.028ZM4.20445 42.1591C1.55932 40.531 2.10366 36.517 5.07143 35.6557L4.51404 33.735C-0.131333 35.083 -0.956753 41.3308 3.1561 43.8623L4.20445 42.1591ZM5.07208 35.6555L65.9545 17.943L65.3958 16.0226L4.51339 33.7352L5.07208 35.6555ZM65.9531 17.9434C68.6453 17.1644 71.1572 19.6888 70.3435 22.4184L72.2601 22.9898C73.5199 18.7639 69.6295 14.7975 65.3972 16.0222L65.9531 17.9434ZM70.3432 22.4194L52.279 83.2287L54.1962 83.7982L72.2604 22.9889L70.3432 22.4194ZM52.2791 83.2285C51.3936 86.2066 47.4365 86.7126 45.8373 84.0633L44.1251 85.0968C46.6277 89.243 52.8188 88.431 54.1961 83.7985L52.2791 83.2285ZM45.8373 84.0633L30.3235 58.3629L28.6112 59.3965L44.1251 85.0968L45.8373 84.0633Z" fill="url(#paint1_linear_1321_41)" mask="url(#path-3-outside-1_1321_41)"/>
</g>
<g id="Rectangle 1018" filter="url(#filter2_bd_1321_41)">
<rect width="23.9508" height="4.12944" rx="2.06472" transform="matrix(0.707167 -0.707047 0.707167 0.707047 33.6094 51.7973)" fill="url(#paint2_linear_1321_41)"/>
<rect x="0.282867" width="23.5508" height="3.72944" rx="1.86472" transform="matrix(0.707167 -0.707047 0.707167 0.707047 33.6922 51.9973)" stroke="url(#paint3_linear_1321_41)" stroke-width="0.4"/>
</g>
</g>
</g>
<defs>
<filter id="filter0_f_1321_41" x="3.78613" y="0.254761" width="61.8643" height="61.8586" filterUnits="userSpaceOnUse" color-interpolation-filters="sRGB">
<feFlood flood-opacity="0" result="BackgroundImageFix"/>
<feBlend mode="normal" in="SourceGraphic" in2="BackgroundImageFix" result="shape"/>
<feGaussianBlur stdDeviation="7" result="effect1_foregroundBlur_1321_41"/>
</filter>
<filter id="filter1_b_1321_41" x="-23.5" y="-8.20337" width="120.001" height="119.99" filterUnits="userSpaceOnUse" color-interpolation-filters="sRGB">
<feFlood flood-opacity="0" result="BackgroundImageFix"/>
<feGaussianBlur in="BackgroundImageFix" stdDeviation="12"/>
<feComposite in2="SourceAlpha" operator="in" result="effect1_backgroundBlur_1321_41"/>
<feBlend mode="normal" in="SourceGraphic" in2="effect1_backgroundBlur_1321_41" result="shape"/>
</filter>
<filter id="filter2_bd_1321_41" x="19.4648" y="20.7181" width="48.1465" height="48.1437" filterUnits="userSpaceOnUse" color-interpolation-filters="sRGB">
<feFlood flood-opacity="0" result="BackgroundImageFix"/>
<feGaussianBlur in="BackgroundImageFix" stdDeviation="7.5"/>
<feComposite in2="SourceAlpha" operator="in" result="effect1_backgroundBlur_1321_41"/>
<feColorMatrix in="SourceAlpha" type="matrix" values="0 0 0 0 0 0 0 0 0 0 0 0 0 0 0 0 0 0 127 0" result="hardAlpha"/>
<feOffset dx="5" dy="5"/>
<feGaussianBlur stdDeviation="5"/>
<feColorMatrix type="matrix" values="0 0 0 0 1 0 0 0 0 0.580392 0 0 0 0 0.247059 0 0 0 0.5 0"/>
<feBlend mode="normal" in2="effect1_backgroundBlur_1321_41" result="effect2_dropShadow_1321_41"/>
<feBlend mode="normal" in="SourceGraphic" in2="effect2_dropShadow_1321_41" result="shape"/>
</filter>
<linearGradient id="paint0_linear_1321_41" x1="32.3704" y1="3.68848" x2="32.3704" y2="60.4635" gradientUnits="userSpaceOnUse">
<stop stop-color="#FFF5F1"/>
<stop offset="1" stop-color="#FF8F63"/>
</linearGradient>
<linearGradient id="paint1_linear_1321_41" x1="12.6429" y1="24.952" x2="57.2863" y2="80.2533" gradientUnits="userSpaceOnUse">
<stop stop-color="white" stop-opacity="0.25"/>
<stop offset="1" stop-color="white" stop-opacity="0"/>
</linearGradient>
<linearGradient id="paint2_linear_1321_41" x1="22.2527" y1="0.745695" x2="-3.53247" y2="5.62182" gradientUnits="userSpaceOnUse">
<stop stop-color="white"/>
<stop offset="1" stop-color="white" stop-opacity="0.2"/>
</linearGradient>
<linearGradient id="paint3_linear_1321_41" x1="3.81257" y1="0.481085" x2="4.54855" y2="5.76793" gradientUnits="userSpaceOnUse">
<stop stop-color="white" stop-opacity="0.25"/>
<stop offset="1" stop-color="white" stop-opacity="0"/>
</linearGradient>
</defs>
</svg>
